<?xml version="1.0" encoding="utf-8"?><!-- Uploaded to: SVG Repo, www.svgrepo.com, Generator: SVG Repo Mixer Tools -->
<svg width="30px" height="30px" viewBox="0 -0.5 25 25" fill="none" xmlns="http://www.w3.org/2000/svg">
<path fill-rule="evenodd" clip-rule="evenodd" d="M5.5 12.9543C5.51239 14.0398 5.95555 15.076 6.73197 15.8348C7.50838 16.5936 8.55445 17.0128 9.64 17.0003H11.646C12.1915 17.0007 12.7131 17.224 13.09 17.6183L14.159 18.7363C14.3281 18.9076 14.5588 19.004 14.7995 19.004C15.0402 19.004 15.2709 18.9076 15.44 18.7363L17.1 17.0003L17.645 16.3923C17.7454 16.2833 17.8548 16.1829 17.972 16.0923C18.9349 15.3354 19.4979 14.179 19.5 12.9543V8.04428C19.4731 5.7845 17.6198 3.97417 15.36 4.00028H9.64C7.38021 3.97417 5.5269 5.7845 5.5 8.04428V12.9543Z" stroke="#000000" stroke-width="1.5" stroke-linecap="round" stroke-linejoin="round"/>
<path fill-rule="evenodd" clip-rule="evenodd" d="M7.5 10.5002C7.5 9.94796 7.94772 9.50024 8.5 9.50024C9.05228 9.50024 9.5 9.94796 9.5 10.5002C9.5 11.0525 9.05228 11.5002 8.5 11.5002C8.23478 11.5002 7.98043 11.3949 7.79289 11.2074C7.60536 11.0198 7.5 10.7655 7.5 10.5002Z" stroke="#000000" stroke-linecap="round" stroke-linejoin="round"/>
<path fill-rule="evenodd" clip-rule="evenodd" d="M11.5 10.5002C11.5 9.94796 11.9477 9.50024 12.5 9.50024C13.0523 9.50024 13.5 9.94796 13.5 10.5002C13.5 11.0525 13.0523 11.5002 12.5 11.5002C11.9477 11.5002 11.5 11.0525 11.5 10.5002Z" stroke="#000000" stroke-linecap="round" stroke-linejoin="round"/>
<path fill-rule="evenodd" clip-rule="evenodd" d="M15.5 10.5002C15.5 9.94796 15.9477 9.50024 16.5 9.50024C17.0523 9.50024 17.5 9.94796 17.5 10.5002C17.5 11.0525 17.0523 11.5002 16.5 11.5002C15.9477 11.5002 15.5 11.0525 15.5 10.5002Z" stroke="#000000" stroke-linecap="round" stroke-linejoin="round"/>
</svg>