<?xml version="1.0" encoding="utf-8"?>

<!DOCTYPE svg PUBLIC "-//W3C//DTD SVG 1.1//EN" "http://www.w3.org/Graphics/SVG/1.1/DTD/svg11.dtd">
<!-- Uploaded to: SVG Repo, www.svgrepo.com, Generator: SVG Repo Mixer Tools -->
<svg height="800px" width="800px" version="1.1" id="_x32_" xmlns="http://www.w3.org/2000/svg" xmlns:xlink="http://www.w3.org/1999/xlink" 
	 viewBox="0 0 512 512"  xml:space="preserve">
<style type="text/css">
	.st0{fill:#000000;}
</style>
<g>
	<path class="st0" d="M186.307,215.56c0-24.234-14.216-44.2-41.391-48.659c-3.74,1.245-7.727,1.943-11.881,1.943
		c-4.152,0-8.146-0.698-11.886-1.943c-27.162,4.46-41.385,24.426-41.385,48.659h53.272H186.307z"/>
	<path class="st0" d="M133.035,160.205c16.107,0,29.159-13.052,29.159-29.151v-8.273c0-16.107-13.052-29.158-29.159-29.158
		c-16.106,0-29.151,13.052-29.151,29.158v8.273C103.884,147.154,116.929,160.205,133.035,160.205z"/>
	<path class="st0" d="M309.277,215.56c0-24.234-14.223-44.2-41.398-48.659c-3.74,1.245-7.72,1.943-11.874,1.943
		c-4.153,0-8.146-0.698-11.887-1.943c-27.169,4.46-41.385,24.426-41.385,48.659h53.272H309.277z"/>
	<path class="st0" d="M256.005,160.205c16.1,0,29.152-13.052,29.152-29.151v-8.273c0-16.107-13.052-29.158-29.152-29.158
		c-16.107,0-29.158,13.052-29.158,29.158v8.273C226.847,147.154,239.898,160.205,256.005,160.205z"/>
	<path class="st0" d="M432.24,215.56c0-24.234-14.223-44.2-41.391-48.659c-3.741,1.245-7.728,1.943-11.874,1.943
		c-4.16,0-8.146-0.698-11.887-1.943c-27.168,4.46-41.384,24.426-41.384,48.659h53.272H432.24z"/>
	<path class="st0" d="M378.975,160.205c16.093,0,29.152-13.052,29.152-29.151v-8.273c0-16.107-13.058-29.158-29.152-29.158
		c-16.107,0-29.165,13.052-29.165,29.158v8.273C349.81,147.154,362.868,160.205,378.975,160.205z"/>
	<path class="st0" d="M511.209,404.9l-71.428-165.946c-1.532-3.547-5.019-5.844-8.879-5.844h-349.8c-3.86,0-7.348,2.296-8.872,5.838
		L0.788,404.9c-1.284,2.982-0.985,6.416,0.799,9.131c1.79,2.709,4.819,4.346,8.074,4.346h166.89
		c11.494-19.428,31.309-33.524,59.116-38.084c6.403,2.123,13.231,3.321,20.34,3.321s13.937-1.198,20.34-3.321
		c27.801,4.56,47.614,18.656,59.102,38.084h166.896c3.248,0,6.283-1.637,8.066-4.346C512.194,411.316,512.5,407.882,511.209,404.9z
		 M305.909,318.929c0,27.561-22.343,49.904-49.904,49.904c-27.568,0-49.904-22.343-49.904-49.904v-14.163
		c0-27.561,22.337-49.904,49.904-49.904c27.561,0,49.904,22.343,49.904,49.904V318.929z"/>
</g>
</svg>