<!DOCTYPE svg PUBLIC "-//W3C//DTD SVG 1.1//EN" "http://www.w3.org/Graphics/SVG/1.1/DTD/svg11.dtd">
<!-- Uploaded to: SVG Repo, www.svgrepo.com, Transformed by: SVG Repo Mixer Tools -->
<svg width="64px" height="64px" viewBox="0 0 24 24" fill="none" xmlns="http://www.w3.org/2000/svg">
<g id="SVGRepo_bgCarrier" stroke-width="0"/>
<g id="SVGRepo_tracerCarrier" stroke-linecap="round" stroke-linejoin="round"/>
<g id="SVGRepo_iconCarrier"> <path d="M4 10C4 8.89543 4.89543 8 6 8H18C19.1046 8 20 8.89543 20 10V10C20 11.6569 18.6569 13 17 13H7C5.34315 13 4 11.6569 4 10V10Z" stroke="#000000" stroke-width="2" stroke-linecap="round" stroke-linejoin="round"/> <path d="M9 6C9 4.89543 9.89543 4 11 4H13C14.1046 4 15 4.89543 15 6V8H9V6Z" stroke="#000000" stroke-width="2" stroke-linecap="round" stroke-linejoin="round"/> <rect x="4" y="8" width="16" height="12" rx="2" stroke="#000000" stroke-width="2" stroke-linecap="round" stroke-linejoin="round"/> <path d="M9 12V14" stroke="#000000" stroke-width="2" stroke-linecap="round" stroke-linejoin="round"/> <path d="M15 12V14" stroke="#000000" stroke-width="2" stroke-linecap="round" stroke-linejoin="round"/> </g>
</svg>